<svg xmlns="http://www.w3.org/2000/svg" width="1536" height="1024" viewBox="0 0 1024 1024" version="1.1"><path d="M 503.986 226.309 C 498.984 228.770, 497.546 229.957, 497.700 231.500 C 497.811 232.600, 499.967 237.325, 502.493 242 C 509.946 255.795, 510.318 255, 496.421 255 L 484.626 255 487.324 252.184 L 490.022 249.367 484.901 240.934 C 477.707 229.088, 476.098 226.998, 474.182 227.012 C 471.672 227.030, 460.541 233.483, 460.233 235.099 C 460.086 235.869, 462.840 240.550, 466.353 245.500 L 472.741 254.500 457.620 255 L 442.500 255.500 442.229 275.250 L 441.958 295 451.447 295 L 460.937 295 461.218 283.250 L 461.500 271.500 514.218 271.241 L 566.936 270.982 567.218 282.741 L 567.500 294.500 576.750 294.788 L 586 295.075 586.183 286.788 C 586.567 269.421, 586.116 257.716, 585.020 256.617 C 584.345 255.940, 578.577 255.370, 570.376 255.171 C 558.639 254.886, 556.926 254.636, 557.442 253.289 C 557.770 252.436, 560.505 247.546, 563.519 242.424 C 566.534 237.302, 569 232.928, 569 232.704 C 569 231.749, 554.861 225.880, 553.291 226.183 C 552.220 226.389, 548.776 231.917, 544.212 240.757 L 536.858 255 526.832 255 L 516.807 255 521.605 250.655 L 526.404 246.310 520.070 236.190 C 511.238 222.081, 511.836 222.448, 503.986 226.309 M 471.667 282.667 C 471.300 283.033, 471 286.626, 471 290.651 L 471 297.969 499.250 298.234 L 527.500 298.500 517.250 305.795 L 507 313.090 507 317.531 L 507 321.972 474.750 322.236 L 442.500 322.500 442.500 331 L 442.500 339.500 475.397 339.764 L 508.294 340.028 507.707 349.099 C 507.337 354.809, 506.533 359.064, 505.536 360.585 C 504.038 362.871, 503.422 363, 493.977 363 L 484 363 484 366.532 C 484 371.141, 486.307 376.559, 488.850 377.920 C 489.965 378.516, 496.090 379, 502.533 379 C 516.681 379, 519.840 377.829, 523.784 371.120 C 526.303 366.836, 526.525 365.538, 526.848 353.250 L 527.196 340 556.491 340 C 582.282 340, 585.859 339.811, 586.393 338.418 C 587.268 336.137, 587.111 324.724, 586.185 323.265 C 585.597 322.339, 577.782 321.964, 554.950 321.765 L 524.500 321.500 532.442 315 C 548.170 302.128, 555.789 294.975, 556.411 292.497 C 557.311 288.914, 554.669 284.429, 550.881 283.108 C 547.401 281.895, 472.854 281.480, 471.667 282.667 M 348.306 371.413 L 345.500 373.826 345.229 441.469 C 344.931 516.138, 344.787 514.287, 351.148 517.576 C 352.826 518.444, 360.398 519.649, 369.317 520.468 C 387.140 522.103, 399.284 524.091, 412.641 527.562 C 439.940 534.655, 469.179 549.081, 491.500 566.470 C 500.638 573.589, 503.969 575.456, 509.235 576.409 C 515.446 577.533, 520.063 575.456, 534.205 565.179 C 556.918 548.671, 574.991 539.171, 598.106 531.591 C 617.310 525.293, 635.684 521.894, 658.500 520.419 C 671.088 519.606, 676.478 517.495, 678.534 512.573 C 679.772 509.610, 680 498.783, 680 442.982 C 680 372.182, 680.035 372.695, 675.055 370.030 C 670.501 367.592, 648.671 369.613, 627 374.479 C 588.629 383.095, 550.689 401.591, 522.529 425.411 C 517.595 429.585, 512.827 433, 511.934 433 C 511.041 433, 509.453 432.044, 508.405 430.875 C 502.832 424.658, 481.944 409.402, 468.295 401.579 C 437.278 383.802, 387.175 369, 358.021 369 C 352.159 369, 350.686 369.366, 348.306 371.413 M 365 444.428 L 365 500.856 370.750 501.479 C 418.438 506.644, 454.289 519.064, 490.271 542.884 C 497.846 547.898, 504.192 552, 504.375 552 C 505.196 552, 504.920 460.087, 504.088 456.631 C 502.890 451.652, 499.217 447.147, 489.410 438.630 C 465.700 418.037, 435.199 402.634, 401.074 394.019 C 390.171 391.266, 371.684 388, 367.007 388 C 365.022 388, 365 388.605, 365 444.428 M 652 388.651 C 608.097 395.309, 577.832 406.825, 548.398 428.074 C 537.483 435.953, 524.034 448.675, 522.345 452.718 C 521.282 455.261, 521 465.982, 521 503.843 L 521 551.751 533.296 543.539 C 555.680 528.591, 575.788 519.012, 600.520 511.515 C 613.332 507.631, 634.274 503.492, 646 502.526 C 650.125 502.186, 654.905 501.694, 656.623 501.432 L 659.746 500.957 659.929 444.479 L 660.111 388 657.306 388.136 C 655.763 388.211, 653.375 388.443, 652 388.651 M 323.667 619.667 C 323.300 620.033, 323 642.983, 323 670.667 L 323 721 356.833 721 C 375.442 721, 390.854 720.815, 391.083 720.588 C 391.313 720.361, 391.354 716.311, 391.177 711.588 L 390.853 703 367.927 703 L 345 703 345 661 L 345 619 334.667 619 C 328.983 619, 324.033 619.300, 323.667 619.667 M 425.440 643.874 C 415.154 646.547, 406.860 653.854, 401.665 664.820 C 398.659 671.165, 398.500 672.102, 398.500 683.500 C 398.500 694.996, 398.636 695.777, 401.733 702.107 C 412.564 724.243, 443.363 730.790, 461.550 714.822 C 465.124 711.684, 470.973 702.656, 470.991 700.250 C 470.997 699.337, 468.441 699, 461.513 699 L 452.027 699 448.763 702.508 C 443.481 708.187, 432.849 708.877, 425.982 703.987 C 422.723 701.666, 419 694.573, 419 690.684 L 419 688 446 688 L 473 688 473 681.605 C 473 669.763, 467.187 656.431, 459.452 650.531 C 452.981 645.596, 447.221 643.720, 437.513 643.388 C 432.556 643.218, 427.123 643.437, 425.440 643.874 M 506.500 644.406 C 499.956 646.023, 496.202 648.083, 492.362 652.165 C 488.403 656.373, 486.103 660.906, 485.764 665.173 L 485.500 668.500 494.536 668.810 L 503.573 669.119 505.297 665.504 C 509.503 656.684, 526.284 656.758, 530.487 665.615 C 531.390 667.518, 531.988 670.070, 531.815 671.287 C 531.466 673.743, 531.225 673.803, 511.241 676.433 C 490.171 679.206, 482.044 685.766, 482.044 700 C 482.044 714.726, 493.551 723.822, 510.873 722.787 C 519.160 722.292, 524.756 720.063, 528.924 715.597 C 532.291 711.991, 533.273 712.343, 532.829 717 L 532.447 721 542.474 721.001 L 552.500 721.002 552.204 693.751 C 552.042 678.763, 551.473 664.854, 550.941 662.843 C 549.343 656.805, 543.983 649.829, 539 647.301 C 530.693 643.087, 516.833 641.852, 506.500 644.406 M 598.312 644.924 C 595.894 646.034, 592.829 648.634, 591.062 651.074 L 588 655.300 588 649.615 L 588 643.930 577.750 644.215 C 572.112 644.372, 567.612 644.837, 567.750 645.250 C 567.888 645.663, 568 662.875, 568 683.500 L 568 721 577.934 721 L 587.867 721 588.184 697.750 C 588.471 676.632, 588.683 674.189, 590.500 671.105 C 594.186 664.847, 597.077 663.500, 606.825 663.500 L 615.500 663.500 615.500 653.500 L 615.500 643.500 609 643.250 C 604.287 643.069, 601.348 643.529, 598.312 644.924 M 656.152 645.509 C 653.210 646.879, 649.497 649.397, 647.902 651.105 L 645 654.212 645 649.106 L 645 644 635 644 L 625 644 625 682.500 L 625 721 634.908 721 L 644.816 721 645.158 697.250 C 645.470 675.559, 645.679 673.158, 647.569 669.557 C 650.361 664.234, 653.904 661.809, 659.676 661.271 C 663.579 660.908, 665.168 661.275, 668 663.198 C 674.159 667.380, 674.452 668.797, 674.835 696.250 L 675.179 721 685.181 721 L 695.182 721 694.825 692.250 C 694.485 664.817, 694.364 663.271, 692.181 658.500 C 690.922 655.750, 688.679 652.206, 687.196 650.624 C 680.020 642.967, 666.423 640.728, 656.152 645.509 M 431 659.138 C 425.115 660.852, 421.198 665.379, 419.400 672.544 L 418.783 675 435.911 675 L 453.038 675 452.407 672.250 C 451.446 668.065, 447.338 662.226, 444.220 660.614 C 440.211 658.540, 435.034 657.963, 431 659.138 M 518.626 688.507 C 506.403 690.280, 501.608 694.317, 503.372 701.347 C 505.463 709.678, 522.911 709.358, 529.246 700.873 C 530.280 699.487, 531.366 695.857, 531.692 692.691 C 532.376 686.066, 533.334 686.373, 518.626 688.507 M 424.873 742.684 C 415.253 748.654, 418.167 761.475, 429.432 762.745 C 438.821 763.804, 445.506 756.968, 443.061 748.808 C 440.996 741.916, 431.346 738.666, 424.873 742.684 M 270.443 744.043 C 249.116 746.216, 232.581 762.781, 228.358 786.205 C 222.966 816.113, 239.236 843.356, 265.799 848.895 C 273.973 850.599, 284.002 850.243, 291.299 847.989 C 298.597 845.735, 308.012 839.318, 312.312 833.667 C 315.799 829.083, 319.642 820.720, 320.543 815.750 C 321.198 812.133, 321.121 812, 318.361 811.994 C 316.788 811.991, 311.838 811.703, 307.362 811.354 L 299.223 810.721 297.652 816.125 C 293.872 829.129, 279.197 834.899, 265.663 828.703 C 256.261 824.399, 251.144 814.827, 250.252 799.881 C 248.911 777.413, 259.042 762.894, 276.174 762.732 C 286.634 762.634, 294.577 768.663, 297.277 778.750 L 298.415 783 309.707 783 C 322.465 783, 322.125 783.279, 319.577 774.881 C 313.078 753.470, 294.202 741.623, 270.443 744.043 M 335 796.500 L 335 848 344.936 848 L 354.871 848 355.186 823.750 C 355.462 802.455, 355.728 799.041, 357.373 795.730 C 362.469 785.475, 376.973 784.056, 382.544 793.266 C 384.326 796.213, 384.528 798.785, 384.811 822.250 L 385.123 848 395.061 848 L 405 848 405 820.682 C 405 790.608, 404.436 786.663, 399.083 779.273 C 394.741 773.279, 386.419 769.466, 378 769.614 C 369.975 769.754, 362.183 772.888, 357.993 777.661 L 355 781.070 355 763.035 L 355 745 345 745 L 335 745 335 796.500 M 492.230 770.550 C 485.354 772.402, 481.633 774.379, 479.194 777.480 C 476.450 780.968, 475.922 780.660, 476.232 775.750 L 476.500 771.500 466.750 771.214 L 457 770.928 457 809.464 L 457 848 467 848 L 477 848 477 823.234 C 477 794.674, 477.351 793.191, 485.036 789.250 C 493.130 785.100, 500.783 787.101, 504.010 794.212 C 505.768 798.085, 505.958 800.893, 505.978 823.250 L 506 848 516.250 848.001 L 526.500 848.001 526.175 819.337 C 525.812 787.372, 525.156 783.607, 518.809 777.116 C 514.821 773.037, 511.914 771.542, 505.201 770.122 C 498.819 768.771, 498.843 768.770, 492.230 770.550 M 570.338 769.977 C 557.630 771.426, 545.517 780.810, 540.938 792.753 C 532.873 813.785, 541.811 838.067, 560.825 846.780 C 573.445 852.563, 591.756 850.368, 601.351 841.922 C 605.900 837.918, 610.098 831.828, 611.464 827.250 C 612.126 825.028, 612.017 825, 602.682 825 C 593.622 825, 593.160 825.107, 591.537 827.584 C 589.385 830.869, 582.653 833.950, 577.566 833.978 C 568.989 834.026, 561.005 827.313, 559.456 818.750 L 558.777 815 586.008 815 L 613.239 815 612.822 805.750 C 612.495 798.495, 611.842 795.276, 609.792 790.825 C 606.517 783.711, 599.964 776.522, 594 773.500 C 590.154 771.551, 578.985 768.673, 577.066 769.137 C 576.755 769.212, 573.727 769.590, 570.338 769.977 M 645.205 770.464 C 641.742 771.250, 637.467 772.785, 635.705 773.876 C 625.132 780.420, 621.259 791.707, 626.133 801.774 C 629.878 809.512, 636.941 812.972, 658.183 817.477 C 667.135 819.376, 671 821.915, 671 825.898 C 671 831.642, 662.468 835.577, 653.605 833.921 C 647.746 832.826, 645.348 831.253, 643.453 827.259 L 641.906 824 631.953 824 L 622 824 622.022 826.750 C 622.083 834.439, 631.106 844.688, 640.396 847.621 C 648.454 850.164, 661.633 850.550, 670.044 848.489 C 678.586 846.396, 684.212 842.445, 688.479 835.544 C 694.659 825.547, 691.497 812.411, 681.500 806.553 C 678.944 805.055, 672.704 802.982, 667.229 801.811 C 650.709 798.280, 647.112 797.101, 645.540 794.701 C 642.106 789.460, 647.053 785, 656.302 785 C 662.603 785, 668.060 788.013, 669 792.011 C 669.569 794.429, 669.867 794.508, 679.427 794.788 L 689.268 795.076 688.582 790.788 C 687.135 781.734, 679.543 773.632, 670.035 770.994 C 663.616 769.214, 651.822 768.962, 645.205 770.464 M 731.260 770.066 C 723.560 771.410, 717.148 774.775, 711.454 780.461 C 695.554 796.339, 697.619 829.166, 715.337 842.169 C 723.556 848.200, 727.467 849.378, 739.500 849.442 C 749.767 849.496, 750.890 849.302, 756.352 846.538 C 762.893 843.227, 768.761 837.168, 771.906 830.477 C 773.058 828.027, 774 825.792, 774 825.511 C 774 825.230, 769.756 825, 764.568 825 C 755.312 825, 755.098 825.054, 753.081 827.886 C 748.907 833.747, 738.917 835.590, 731.302 831.904 C 726.439 829.550, 721.889 822.977, 721.646 817.956 L 721.500 814.943 748 814.721 L 774.500 814.500 774.834 809.500 C 775.571 798.444, 770.281 785.058, 762.448 778.163 C 754.573 771.232, 742.517 768.101, 731.260 770.066 M 421 809.500 L 421 848 431 848 L 441 848 441 809.500 L 441 771 431 771 L 421 771 421 809.500 M 568.896 786.331 C 564.813 788.164, 562.828 790.182, 560.863 794.500 C 557.802 801.229, 557.286 801, 575.500 801 C 591.630 801, 592 800.953, 592 798.886 C 592 797.724, 591.017 795.024, 589.816 792.886 C 586.098 786.271, 576.047 783.122, 568.896 786.331 M 730.424 787.019 C 726.162 789.129, 722 794.992, 722 798.886 C 722 800.953, 722.370 801, 738.500 801 C 747.575 801, 755 800.605, 755 800.122 C 755 797.893, 751.894 792.244, 749.332 789.814 C 743.872 784.634, 737.227 783.652, 730.424 787.019" stroke="none" fill="#165f8f" fill-rule="evenodd"/><path d="M 354.238 167.098 C 330.158 171.165, 307.813 189.474, 298.896 212.444 C 292.707 228.388, 292.921 221.724, 293.245 388.060 C 293.576 558.105, 292.922 543.741, 301.107 560.569 C 308.429 575.624, 319.663 586.863, 334.500 593.975 C 350.184 601.494, 337.747 601, 511.366 601 C 686.333 601, 673.784 601.533, 690.792 593.373 C 711.427 583.472, 726.618 562.540, 729.963 539.398 C 730.591 535.058, 730.963 477.059, 730.967 383 C 730.973 238.561, 730.908 233.178, 729.020 224 C 723.735 198.313, 706.404 178.989, 680.261 169.635 L 671.500 166.500 515.500 166.355 C 428.353 166.274, 357.177 166.602, 354.238 167.098 M 503.986 226.309 C 498.984 228.770, 497.546 229.957, 497.700 231.500 C 497.811 232.600, 499.967 237.325, 502.493 242 C 509.946 255.795, 510.318 255, 496.421 255 L 484.626 255 487.324 252.184 L 490.022 249.367 484.901 240.934 C 477.707 229.088, 476.098 226.998, 474.182 227.012 C 471.672 227.030, 460.541 233.483, 460.233 235.099 C 460.086 235.869, 462.840 240.550, 466.353 245.500 L 472.741 254.500 457.620 255 L 442.500 255.500 442.229 275.250 L 441.958 295 451.447 295 L 460.937 295 461.218 283.250 L 461.500 271.500 514.218 271.241 L 566.936 270.982 567.218 282.741 L 567.500 294.500 576.750 294.788 L 586 295.075 586.183 286.788 C 586.567 269.421, 586.116 257.716, 585.020 256.617 C 584.345 255.940, 578.577 255.370, 570.376 255.171 C 558.639 254.886, 556.926 254.636, 557.442 253.289 C 557.770 252.436, 560.505 247.546, 563.519 242.424 C 566.534 237.302, 569 232.928, 569 232.704 C 569 231.749, 554.861 225.880, 553.291 226.183 C 552.220 226.389, 548.776 231.917, 544.212 240.757 L 536.858 255 526.832 255 L 516.807 255 521.605 250.655 L 526.404 246.310 520.070 236.190 C 511.238 222.081, 511.836 222.448, 503.986 226.309 M 471.667 282.667 C 471.300 283.033, 471 286.626, 471 290.651 L 471 297.969 499.250 298.234 L 527.500 298.500 517.250 305.795 L 507 313.090 507 317.531 L 507 321.972 474.750 322.236 L 442.500 322.500 442.500 331 L 442.500 339.500 475.397 339.764 L 508.294 340.028 507.707 349.099 C 507.337 354.809, 506.533 359.064, 505.536 360.585 C 504.038 362.871, 503.422 363, 493.977 363 L 484 363 484 366.532 C 484 371.141, 486.307 376.559, 488.850 377.920 C 489.965 378.516, 496.090 379, 502.533 379 C 516.681 379, 519.840 377.829, 523.784 371.120 C 526.303 366.836, 526.525 365.538, 526.848 353.250 L 527.196 340 556.491 340 C 582.282 340, 585.859 339.811, 586.393 338.418 C 587.268 336.137, 587.111 324.724, 586.185 323.265 C 585.597 322.339, 577.782 321.964, 554.950 321.765 L 524.500 321.500 532.442 315 C 548.170 302.128, 555.789 294.975, 556.411 292.497 C 557.311 288.914, 554.669 284.429, 550.881 283.108 C 547.401 281.895, 472.854 281.480, 471.667 282.667 M 348.306 371.413 L 345.500 373.826 345.229 441.469 C 344.931 516.138, 344.787 514.287, 351.148 517.576 C 352.826 518.444, 360.398 519.649, 369.317 520.468 C 387.140 522.103, 399.284 524.091, 412.641 527.562 C 439.940 534.655, 469.179 549.081, 491.500 566.470 C 500.638 573.589, 503.969 575.456, 509.235 576.409 C 515.446 577.533, 520.063 575.456, 534.205 565.179 C 556.918 548.671, 574.991 539.171, 598.106 531.591 C 617.310 525.293, 635.684 521.894, 658.500 520.419 C 671.088 519.606, 676.478 517.495, 678.534 512.573 C 679.772 509.610, 680 498.783, 680 442.982 C 680 372.182, 680.035 372.695, 675.055 370.030 C 670.501 367.592, 648.671 369.613, 627 374.479 C 588.629 383.095, 550.689 401.591, 522.529 425.411 C 517.595 429.585, 512.827 433, 511.934 433 C 511.041 433, 509.453 432.044, 508.405 430.875 C 502.832 424.658, 481.944 409.402, 468.295 401.579 C 437.278 383.802, 387.175 369, 358.021 369 C 352.159 369, 350.686 369.366, 348.306 371.413 M 365 444.428 L 365 500.856 370.750 501.479 C 418.438 506.644, 454.289 519.064, 490.271 542.884 C 497.846 547.898, 504.192 552, 504.375 552 C 505.196 552, 504.920 460.087, 504.088 456.631 C 502.890 451.652, 499.217 447.147, 489.410 438.630 C 465.700 418.037, 435.199 402.634, 401.074 394.019 C 390.171 391.266, 371.684 388, 367.007 388 C 365.022 388, 365 388.605, 365 444.428 M 652 388.651 C 608.097 395.309, 577.832 406.825, 548.398 428.074 C 537.483 435.953, 524.034 448.675, 522.345 452.718 C 521.282 455.261, 521 465.982, 521 503.843 L 521 551.751 533.296 543.539 C 555.680 528.591, 575.788 519.012, 600.520 511.515 C 613.332 507.631, 634.274 503.492, 646 502.526 C 650.125 502.186, 654.905 501.694, 656.623 501.432 L 659.746 500.957 659.929 444.479 L 660.111 388 657.306 388.136 C 655.763 388.211, 653.375 388.443, 652 388.651" stroke="none" fill="#b1e4f5" fill-rule="evenodd"/></svg>